<svg width="41" height="29" viewBox="0 0 41 29" fill="none" xmlns="http://www.w3.org/2000/svg">
<path d="M37.1581 2.3856L35.5129 14.4627H33.3535C31.8625 6.11311 26.7211 0 20.5 0C14.2789 0 9.13753 6.18766 7.64653 14.4627H5.48715L3.8419 2.3856H0.5V19.3085L7.1838 24.1542V29H33.8162V24.1542L40.5 19.3085V2.3856H37.1581ZM16.3355 19.3085C14.9473 19.3085 13.8162 17.6684 13.8162 15.6555C13.8162 13.6427 14.9473 12.0026 16.3355 12.0026C17.7237 12.0026 18.8548 13.6427 18.8548 15.6555C18.8548 17.6684 17.7237 19.3085 16.3355 19.3085ZM24.6645 19.3085C23.2764 19.3085 22.1452 17.6684 22.1452 15.6555C22.1452 13.6427 23.2764 12.0026 24.6645 12.0026C26.0527 12.0026 27.1838 13.6427 27.1838 15.6555C27.1838 17.6684 26.0527 19.3085 24.6645 19.3085Z" fill="#3338A0"/>
</svg>
