<svg width="88" height="98" viewBox="0 0 88 98" fill="none" xmlns="http://www.w3.org/2000/svg">
<path d="M39.9431 45.4381C26.1889 49.1222 13.9083 53.5433 0.890925 60.666C0.809054 62.549 0.596191 66.3642 0.399702 66.5607C0.154091 66.8063 35.7677 53.052 40.9256 52.3152C41.6624 57.2274 46.8202 85.4727 53.4518 97.0165C54.1886 96.2796 56.3991 94.3147 57.1359 94.0691C57.6271 91.1218 49.522 57.7186 48.5395 50.1047C59.592 46.6661 83.1707 40.3785 87.1005 38.8066C87.2643 37.7423 87.5426 35.4171 87.3461 34.6312C81.2058 34.14 50.5044 41.5083 47.3115 42.982C44.8554 28.2453 46.0834 2.70172 44.3641 0C43.2179 0.327482 40.68 1.03157 39.6975 1.22806C37.9782 5.89467 38.4695 34.14 39.9431 45.4381Z" fill="white"/>
<path d="M64.7496 4.17535C70.4467 4.17535 75.5571 10.1132 75.5573 17.438C75.5573 25.7888 70.4468 30.9468 64.7496 30.9468C57.8727 30.9467 53.943 24.7629 53.943 17.438C53.9431 10.1133 59.0526 4.17553 64.7496 4.17535ZM64.7496 11.0523C62.3082 11.0525 60.3289 13.9115 60.3287 17.438C60.3287 20.9648 62.3081 23.8236 64.7496 23.8238C67.1913 23.8238 69.1705 20.9649 69.1705 17.438C69.1704 13.9114 67.1912 11.0523 64.7496 11.0523Z" fill="#FCC61D"/>
<path d="M26.9255 66.5607C32.6226 66.5607 37.7329 72.4986 37.7331 79.8234C37.7331 88.1741 32.6227 93.3322 26.9255 93.3322C20.0485 93.332 16.1188 87.1482 16.1188 79.8234C16.119 72.4987 21.2285 66.5608 26.9255 66.5607ZM26.9255 73.4376C24.484 73.4379 22.5047 76.2968 22.5046 79.8234C22.5046 83.3501 24.484 86.2089 26.9255 86.2091C29.3671 86.2091 31.3464 83.3502 31.3464 79.8234C31.3463 76.2967 29.3671 73.4376 26.9255 73.4376Z" fill="#FCC61D"/>
<path d="M20.5398 22.105C19.9503 22.498 16.3644 26.0348 14.6451 28.4909C12.9259 26.2804 9.24168 22.8418 8.75046 22.5962C8.50485 22.5962 6.78557 24.3155 6.04874 25.0523C6.44171 26.6243 9.81478 31.1108 11.4522 33.1575C10.4697 34.3856 7.5224 40.2802 6.78557 42.2451C7.5224 42.982 10.7154 44.9469 11.9434 45.6837C13.1715 44.7013 16.1188 39.2978 16.8556 38.561C17.3469 39.0522 22.7503 41.9995 23.9784 42.2451L26.9257 39.2978C26.1397 38.3154 22.2591 34.6312 20.2942 33.1575C21.2766 31.9295 23.2415 27.9997 24.224 25.298C24.224 25.1015 21.7679 22.8418 20.5398 22.105Z" fill="#3338A0"/>
<path d="M77.276 54.7713C76.6865 55.1643 73.1006 58.7011 71.3813 61.1572C69.662 58.9467 65.9779 55.5082 65.4866 55.2626C65.241 55.2626 63.5217 56.9818 62.7849 57.7187C63.1779 59.2906 66.551 63.7771 68.1884 65.8238C67.2059 67.0519 64.2586 72.9466 63.5217 74.9115C64.2586 75.6483 67.4515 77.6132 68.6796 78.35C69.9076 77.3676 72.855 71.9641 73.5918 71.2273C74.083 71.7185 79.4865 74.6658 80.7145 74.9115L83.6619 71.9641C82.8759 70.9817 78.9953 67.2975 77.0304 65.8238C78.0128 64.5958 79.9777 60.666 80.9601 57.9643C80.9601 57.7678 78.504 55.5082 77.276 54.7713Z" fill="#3338A0"/>
</svg>
