<svg width="32" height="32" viewBox="0 0 32 32" fill="none" xmlns="http://www.w3.org/2000/svg">
<g clip-path="url(#clip0_104_48)">
<path d="M23.8875 8.11254C23.692 8.30804 23.3757 8.30682 23.1717 8.12027C21.2802 6.39106 18.7664 5.33337 16 5.33337C10.1067 5.33337 5.34668 10.1067 5.34668 16C5.34668 21.8934 10.1067 26.6667 16 26.6667C20.741 26.6667 24.747 23.5686 26.1276 19.286C26.2278 18.9752 25.9888 18.6667 25.6622 18.6667H23.8867C23.6749 18.6667 23.4875 18.8008 23.4081 18.9972C22.2215 21.9301 19.3618 24 16 24C11.58 24 8.00001 20.42 8.00001 16C8.00001 11.58 11.58 8.00004 16 8.00004C18.027 8.00004 19.8627 8.77629 21.2694 10.0239C21.476 10.2072 21.4751 10.525 21.2798 10.7203L18.1869 13.8132C17.8719 14.1281 18.095 14.6667 18.5405 14.6667H26.1667C26.4428 14.6667 26.6667 14.4429 26.6667 14.1667V6.54048C26.6667 6.09503 26.1281 5.87194 25.8131 6.18693L23.8875 8.11254Z" fill="#3338A0"/>
</g>
<defs>
<clipPath id="clip0_104_48">
<rect width="32" height="32" fill="white"/>
</clipPath>
</defs>
</svg>
