<svg width="32" height="33" viewBox="0 0 32 33" fill="none" xmlns="http://www.w3.org/2000/svg">
<path d="M28.2883 13.7916H26.9484C26.5875 13.7916 26.1664 13.4751 26.0242 13.1006C25.8984 12.7525 25.7453 12.4097 25.5758 12.0721C25.3953 11.7187 25.4609 11.2071 25.718 10.9592L26.675 10.0361C27.3422 9.39265 27.3422 8.34304 26.675 7.69955L25.1273 6.20688C24.8047 5.89568 24.3727 5.72163 23.9133 5.72163C23.4539 5.72163 23.0219 5.89041 22.6992 6.20688L21.7477 7.12991C21.5945 7.27759 21.3375 7.36726 21.0641 7.36726C20.8945 7.36726 20.7305 7.33561 20.5938 7.26704C20.2492 7.10354 19.8883 6.96113 19.5273 6.83454C19.1391 6.70268 18.8109 6.29127 18.8109 5.94315V4.65091C18.8109 3.7437 18.0398 3 17.0938 3H14.9062C13.9602 3 13.1945 3.7437 13.1945 4.65091V5.94315C13.1945 6.29127 12.8664 6.70268 12.4781 6.83454C12.1172 6.95585 11.7563 7.10354 11.4117 7.26177C11.275 7.32506 11.1109 7.36198 10.9414 7.36198C10.668 7.36198 10.4109 7.27232 10.2578 7.12463L9.30625 6.20688C8.98359 5.89568 8.55156 5.72163 8.09219 5.72163C7.63281 5.72163 7.20078 5.89568 6.87812 6.20688L5.325 7.70483C5.00234 8.01602 4.82187 8.4327 4.82187 8.87576C4.82187 9.31881 5.00234 9.73022 5.325 10.0414L6.28203 10.9644C6.53906 11.2123 6.60469 11.724 6.42969 12.0774C6.26016 12.4149 6.1125 12.7578 5.98125 13.1059C5.84453 13.4804 5.41797 13.7968 5.05703 13.7968H3.71719C2.77109 13.7916 2 14.5353 2 15.4477V17.5575C2 18.47 2.77109 19.2084 3.71172 19.2084H5.05156C5.4125 19.2084 5.83906 19.5249 5.97578 19.8994C6.10156 20.2475 6.25469 20.5904 6.42422 20.9279C6.60469 21.2813 6.53359 21.7929 6.27656 22.0408L5.31953 22.9639C4.65234 23.6073 4.65234 24.657 5.31953 25.3004L6.87266 26.7984C7.19531 27.1096 7.62734 27.2836 8.08672 27.2836C8.54609 27.2836 8.97266 27.1096 9.30078 26.7984L10.2578 25.8754C10.4109 25.7277 10.668 25.638 10.9414 25.638C11.1109 25.638 11.275 25.6697 11.4117 25.7382C11.7563 25.9017 12.1172 26.0442 12.4781 26.1655C12.8664 26.2973 13.1945 26.7087 13.1945 27.0568V28.3491C13.1945 29.2616 13.9656 30 14.9062 30H17.0938C18.0398 30 18.8109 29.2563 18.8109 28.3491V27.0568C18.8109 26.7087 19.1391 26.2973 19.5273 26.1655C19.8883 26.0442 20.2492 25.8965 20.5938 25.7382C20.725 25.6749 20.8945 25.638 21.0641 25.638C21.3375 25.638 21.5945 25.7277 21.7477 25.8754L22.6992 26.7984C23.0219 27.1096 23.4539 27.2836 23.9133 27.2836C24.3727 27.2836 24.7992 27.1096 25.1273 26.7984L26.675 25.3004C27.3422 24.657 27.3422 23.6073 26.675 22.9639L25.7234 22.0461C25.4664 21.7982 25.4008 21.2866 25.5813 20.9332C25.7508 20.6009 25.8984 20.2528 26.0242 19.9047C26.1609 19.5302 26.5875 19.2137 26.9484 19.2137H28.2883C29.2344 19.2137 30 18.47 30 17.5628V15.4477C30 14.5353 29.2289 13.7916 28.2883 13.7916ZM16 21.3499C13.2273 21.3499 10.9742 19.1768 10.9742 16.5026C10.9742 13.8338 13.2273 11.6554 16 11.6554C18.7727 11.6554 21.0258 13.8285 21.0258 16.5026C21.0258 19.1715 18.7727 21.3499 16 21.3499Z" fill="#3338A0"/>
</svg>
